<svg xmlns="http://www.w3.org/2000/svg" width="513" height="564" fill="none" viewBox="0 0 513 564"><g filter="url(#a)"><g clip-path="url(#b)"><path d="M-13.4-13.64h526.24v578.6H-13.4z"/><path stroke="#fefefe" stroke-linecap="round" stroke-width="2" d="M297.564 20.074c-.496 0-1.545.313-2.534.907-.259.156-.591.198-.603.216-.479.69 1.93-.937 2.697-1.54 1.143-.897-2.357 2.394-3.075 3.017-.393.341.233-1.195.512-1.414.098-.077.208.29.173.587-.074.635-.43 1.168-.588 1.412-.582.9.63-2.97 1.003-3.729.482-.982-1.285 1.592-1.522 1.797-.065.056-.081-.33-.186-.255-.507.364-.612 1.248-.731 1.076-.231-.336-.04-1.459-.173-1.845-.131-.382-.983.874-1.457 1.482-.44.566-.005-1.634.311-2.107.159-.238.315-.473.471-.445 1.174.21.614 2.648 1.021 4.294.103.414.979.275 1.194.314.567.103-1.358.839-3.54 1.007-.741.058-1.288-.276-1.841-.51-1.439-.606-.479-3.398-.249-3.831a.71.71 0 0 1 .594-.357c.966-.01 1.269 1.495 1.783 2.445.244.45.278 1.331.217 2.09-.023.277-.312-1.354-.413-2.462-.03-.34-.301-.17-.522.027-.469.419-.776.908-.932 1.096-.261.314-.229-1.114-.229-1.485 0-1.16.315 1.869.361 2.367.097 1.075-1.215 1.282-1.631 1.557-.212.14-.553 0-.606-.109-.131-.271 2.692-.407 5.864-.407.809 0-2.224-.237-3.452-.434-.812-.13-1.538-.119-2.011-.354-.55-.275-.872-.869-1.109-1.494-.332-.874.076-1.724.199-1.82.557-.436-.574 1.426-.802 1.86-.116.22-.369.356-.482-.263s-.113-2.018-.256-2.66-.429-.488-.654-.251c-.876.919-1.015 1.897-1.41 2.488-.179.268-.239.514-.279.022-.04-.491-.04-1.716-.115-2.242-.074-.526-.223-.315-.339-.05-.244.559-.353 1.135-.539 1.384-.189.252-.383-.812-.457-1.3-.018-.12-.222.112-.337-.004-.922-.928-.512-2.395-.827-3.343-.174-.523-.62 2.264-.368 4.514.191 1.715 2.584 1.156 3.838 1.275.639.06 1.484.198 2.127.235.819.047-1.722.582-2.907.899-3.02.806-7.743.16-7.954-.064-.82-.868 3.579-.81 6.31-1.03 5.271-.426 6.55-.282 7.041-.322 2.118-.168-5.348-.372-8.039-.509-1.131-.057-5.796-.234-11.797-.311-1.808-.023-1.099-.231 2.271-.31 3.369-.08 9.379-.08 12.33.029 2.951.11 2.661.328 2.316.44-1.642.535-3.76.363-6.977.596-2.019.147-5.687.048-6.545-.127-1.285-.262 3.978-.885 5.295-.94 4.584-.188 9.477-.274 8.776-.235-.343.019-.655.117-3.42.157-7.972.117-12.728-.035-11.638-.19.817-.116 3.584-.247 6.777-.247 1.73 0-8.116.281-10.008.242-.635-.013 3.727-.198 7.186-.198.829 0-3.181-.114-10.117-.357-6.134-.215-17.587-.27-23.796-.395-6.831-.136-8.962-.334-11.412-.38-4.209-.08-9.786-.392-11.235-.651-.579-.103-.085-1.138-.067-1.387.099-1.353-2.208.972-2.864 1.746-1.079 1.275 2.35 1.74 4.5 2.098 4.265.71 6.9-.24 7.603-.24 3.791 0-6.342.266-7.913.23-.176-.004.636-.18 2.373-.809.405-.147.635-.238.567-.314-.73-.815-2.426-.398-6.58-.607-2.24-.113 3.367-.767 4.668-.852.158-.01-1.608.392-3.233.87-.905.267 2.065-1.483 3.015-2.232.464-.367.949-.595 1.121-.74.338-.285-1.578-.173-2.42-.173-.065 0 .602 0 .766.114 1.392.965-3.09 2.942-3.703 3.892-.129.2.229.471.573.631 1.579.733 2.762.397 2.9.555.917 1.05-2.403.316-2.439.435-.931 2.99 6.696.651 7.211.69 1.027.079-6.262.396-8.138.361-.228-.004-.135-.408-.108-.315s.031.558.207.832c1.003 1.572 4.193.26 6.245.14 1.032-.06 2.214-.198 3.023-.198 1.173 0-4.819.83-7.509 1.176-.571.074-1.13.21-1.452.135-.9-.206 1.79-.53 3.265-.702.764-.088 2.049-.27 5.609-.413s9.358-.24 12.632-.332 3.85-.174 6.378-.217c2.529-.042 6.993-.042 9.603.004 3.231.058 4.102.314 7.768.432 3.43.111 10.053.04 13.334.07s3.019.09 2.602.163c-.979.17-2.599.24-4.414.29-1.278.034-4.946.247-9.982.201-3.772-.035-6.224-.338-11.113-.544-4.368-.184-12.58-.201-16.584-.385s-3.553-.451-3.126-.628c.793-.327 1.692-.414 5.728-.418 3.567-.004 10.215.302 13.826.466 3.987.181 5.063.352 6.361.393 1.089.035 5.239.21 8.724.21.175 0-4.296 0-6.795-.045-2.498-.044-3.25-.131-7.091-.228s-10.749-.201-14.684-.303c-3.936-.103-4.69-.201-6.369-.252-4.259-.128-7.145-.121-7.261-.364-.624-1.313 2.131-.8 6.853-.918 4.329-.108 12.587-.04 16.998-.08 5.6-.049 7.645-.434 11.326-.631 7.38-.395 12 .186 10.983.649-2.68 1.22-4.512.887-5.815 1.011-1.042.1-2.446.355-4.265.475-.952.063-1.743.276-1.95.359-.099.04.643-.068 3.112-.105 2.469-.038 6.856-.038 8.859-.038s1.491 0 .153-.14c-3.495-.364-5.951-.79-6.365-1.03-.199-.117-.246-.392-.13-.59.602-1.032 1.697-1.07 2.011-1.317.335-.265-.319-1.084-.792-1.756a1.08 1.08 0 0 0-.786-.477c-.691-.092-1.404.195-1.857.442-.803.438.526 1.824 1.04 2.97.124.278.198.514.395.674.196.16.509.239.905.162.904-.176 1.503-.736 1.695-1.159.101-.22-.038-.532-.196-.8a1.46 1.46 0 0 0-.694-.623c-1.356-.544-4.027 1.45-5.619 2.287-.911.478-1.971.356-2.417.436-.875.156 3.477-.531 3.7-1.097.633-1.599-7.116-.192-10.087-.238-3.346-.052-3.964-.235-4.098-.27-1.228-.323 2.516-.335 3.963-.457 1.638-.138 3.809-.445 6.275-.406.504.008-1.11.746-2.95 1.614-.387.183 2.347.479 5.128.479 1.943 0-4.283.264-7.746.524-.96.072-1.841.053-2.142-.06-.903-.34 1.893-1.517 3.193-2.03.349-.139.747-.275.688-.43-.233-.609-2.151-.45-3.258-.565-2.121-.218 3.184-.814 4.101-.74.756.062-1.642 1.009-2.592 1.286-1.153.337-2.451.671-2.663.908-1.158 1.296 3.838.318 4.931.59 1.737.432-5.058.596-10.224.62-.797.004-.503-.198-.235-.305s.503-.186 3.709-.226 9.379-.04 10.291-.04c3.621 0-9.164-.125-11.177-.314-4.411-.414-6.67-.362-8.009-.598-1.127-.198-2.676-.632-3.827-.948-1.13-.312-2.094-.395-4.183-.987-1.68-.476-2.972-.831-3.037-1.068-.285-1.03 2.138-.003 2.08.19-.325 1.09-2.493.498-3.139.656-.304.074 1.039.238 1.34.208.674-.067-2.956-.152-5.2-.113-.559.01.064.117 5.04.158 4.975.04 14.285.04 19.198.08 5.15.04 5.955.276 10.132.498 3.611.191 10.257.35 13.967.416 4.284.075 5.816-.103 7.435-.142 1.077-.026 4.832-.198 10.038-.158 1.848.014 2.084.12 2.055.275-.35 1.913-4.092 1.898-7.639 2.14-3.191.218-9.219.372-11.9.408s-1.835-.115-.31-.193c6.341-.325 7.916-.316 8.677-.316 2.366 0-4.307.282-4.524.321-.351.063.985.116 3.846-.103 2.528-.192 7.254-.321 9.958-.224 4.423.159 6.043 1.765 6.788 2.084 1.313.563-3.241.414-10.63.582-2.366.055-3.315.396-3.788.436-.486.04 4.078.198 11.089.272 2.219.023 1.714.222.751.415-2.364.475-4.294.67-4.781.67-1.373 0 3.719-.474 5.376-1.088 1.202-.445-.429-3.604.227-5.048.447-.985 2.225-.833 3.877-.808 1.918.028 3.805 1.126 5.418 1.656 1.098.36 2.038 2.216 2.75 3.483.289.514.837.764 1.306.921.471.159-3.498.239-10.11.2-2.404-.014-2.873-.118-8.343-.379-5.469-.26-15.925-.702-21.551-.968-6.11-.29-7.279-.425-8.943-.51-4.69-.24-7.378-.587-10.291-.753-4.847-.43-6.963-.509-6.967-.627.308-.04 1.248-.04 2.216-.04"/></g></g><defs><clipPath id="b"><rect width="499" height="550" fill="#fff" rx="14"/></clipPath><filter id="a" width="513" height="564" x="0" y="0" color-interpolation-filters="sRGB" filterUnits="userSpaceOnUse"><feFlood flood-opacity="0" result="BackgroundImageFix"/><feColorMatrix in="SourceAlpha" result="hardAlpha" values="0 0 0 0 0 0 0 0 0 0 0 0 0 0 0 0 0 0 127 0"/><feOffset dx="14" dy="14"/><feComposite in2="hardAlpha" operator="out"/><feColorMatrix values="0 0 0 0 0.0666667 0 0 0 0 0.0666667 0 0 0 0 0.0666667 0 0 0 1 0"/><feBlend in2="BackgroundImageFix" result="effect1_dropShadow_20_32"/><feBlend in="SourceGraphic" in2="effect1_dropShadow_20_32" result="shape"/></filter></defs></svg>